<?xml version="1.0" encoding="utf-8"?>
<!-- Generated by IcoMoon.io -->
<!DOCTYPE svg PUBLIC "-//W3C//DTD SVG 1.1//EN" "http://www.w3.org/Graphics/SVG/1.1/DTD/svg11.dtd">
<svg version="1.1" xmlns="http://www.w3.org/2000/svg" xmlns:xlink="http://www.w3.org/1999/xlink" width="2084" height="640" viewBox="0 0 2084 640"><g id="icomoon-ignore">
</g>
<path d="M0 40.569c0-19.822 16.239-36.061 35.165-36.061h201.024c142.424 0 236.189 75.706 236.189 200.1v1.792c0 136.097-113.587 206.428-247.892 206.428h-153.259v191.084c0 19.822-16.239 36.061-36.061 36.061-18.926 0.028-35.165-16.211-35.165-36.033v-563.37zM227.174 347.956c104.544 0 173.082-55.884 173.082-138.813v-1.82c0-90.153-67.614-137.021-169.498-137.021h-159.531v277.654h155.947z"></path>
<path d="M608.362 36.061c0-19.823 16.211-36.061 35.109-36.061 19.851 0 36.061 16.239 36.061 36.061v567.878c0 19.822-16.211 36.061-36.061 36.061-18.926 0-35.137-16.239-35.137-36.061v-567.878z"></path>
<path d="M864.29 36.957c0-18.926 16.211-35.165 35.165-35.165h9.911c16.239 0 26.15 8.119 36.061 20.718l383.121 488.561v-475.906c-0.028-18.926 15.287-35.165 35.137-35.165 18.926 0 34.241 16.239 34.241 35.165v569.697c0 18.926-13.495 33.345-32.421 33.345h-3.612c-15.342 0-26.15-9.015-36.957-21.614l-391.24-500.319v488.561c0 18.926-15.315 35.165-35.137 35.165-18.954 0-34.269-16.239-34.269-35.165v-567.878z"></path>
<path d="M1576.272 36.061c0-19.823 16.211-36.061 35.165-36.061 19.822 0 36.033 16.239 36.033 36.061v345.24l359.659-368.674c8.119-7.223 16.239-12.627 27.97-12.627 18.926 0 34.269 17.134 34.269 35.165 0 9.911-4.507 18.031-11.731 25.226l-223.534 221.742 239.773 295.684c6.299 8.119 9.911 15.315 9.911 26.15 0 18.926-16.211 36.061-36.033 36.061-13.523 0-22.566-7.223-28.838-16.239l-235.265-292.94-136.125 136.097v137.021c0 19.823-16.211 36.061-36.033 36.061-18.954 0-35.165-16.239-35.165-36.061v-567.906z"></path>
</svg>
